<svg id="No_Items" viewBox="0 0 64 64" xmlns="http://www.w3.org/2000/svg" data-name="No Items"><path d="m32 33v28l-19-10v-18z" fill="#f2f2f2"/><path d="m51 33v18l-19 10v-28z" fill="#bfbfbf"/><path d="m32 17-19 10 19 10 19-10z" fill="#595959"/><path d="m32 37 7 6 18-10-6-6z" fill="#8c8c8c"/><path d="m32 37-7 6-18-10 6-6z" fill="#bfbfbf"/><path d="m38 11-6 6 19 10 6-6z" fill="#8c8c8c"/><path d="m26 11 6 6-19 10-6-6z" fill="#bfbfbf"/><path d="m32 3c-7.72 0-14 6.28-14 14 0 6.5 4.52 12.17 10.81 13.63l2.33 3.88c.18.3.51.49.86.49s.68-.18.86-.49l2.33-3.88c6.29-1.46 10.81-7.13 10.81-13.63 0-7.72-6.28-14-14-14z" fill="#f2f2f2"/><path d="m37.71 11.29c-.39-.39-1.02-.39-1.41 0l-4.29 4.29-4.29-4.29c-.39-.39-1.02-.39-1.41 0s-.39 1.02 0 1.41l4.29 4.29-4.29 4.29c-.39.39-.39 1.02 0 1.41.2.2.45.29.71.29s.51-.1.71-.29l4.29-4.29 4.29 4.29c.2.2.45.29.71.29s.51-.1.71-.29c.39-.39.39-1.02 0-1.41l-4.29-4.29 4.29-4.29c.39-.39.39-1.02 0-1.41z" fill="#595959"/></svg>